<?xml version="1.0" standalone="no"?>
<!DOCTYPE svg PUBLIC "-//W3C//DTD SVG 20010904//EN"
 "http://www.w3.org/TR/2001/REC-SVG-20010904/DTD/svg10.dtd">
<svg version="1.0" xmlns="http://www.w3.org/2000/svg"
 width="1080.000000pt" height="608.000000pt" viewBox="0 0 1080.000000 608.000000"
 preserveAspectRatio="xMidYMid meet">
<metadata>
Created by potrace 1.16, written by Peter Selinger 2001-2019
</metadata>
<g transform="translate(0.000000,608.000000) scale(0.100000,-0.100000)"
fill="#000000" stroke="none">
<path d="M2000 5475 l0 -585 1223 0 c673 0 1226 -3 1230 -6 3 -3 -5 -24 -19
-45 -13 -21 -24 -41 -24 -44 0 -3 -10 -22 -23 -43 -13 -20 -37 -62 -54 -92
-17 -30 -85 -149 -153 -265 -67 -115 -151 -262 -188 -325 -36 -63 -120 -209
-187 -325 -67 -115 -181 -311 -252 -435 -163 -282 -480 -831 -580 -1004 -165
-284 -193 -334 -193 -345 0 -17 1514 -16 1528 2 11 13 134 227 212 367 25 47
57 103 70 125 13 22 54 96 93 165 72 129 197 351 297 525 51 89 170 301 238
425 14 25 28 50 32 55 4 6 20 33 35 60 67 122 126 226 174 309 28 49 51 91 51
93 0 2 20 37 45 77 25 41 45 77 45 80 0 3 18 35 40 71 22 36 40 68 40 70 0 3
11 22 24 43 12 20 41 71 63 112 22 41 111 198 196 348 86 150 169 296 185 325
54 97 129 232 296 525 91 161 166 300 166 308 0 12 -314 14 -2305 14 l-2305 0
0 -585z"/>
<path d="M2461 1422 c-129 -228 -295 -514 -397 -688 -30 -51 -54 -97 -54 -103
0 -8 167 -10 626 -9 l627 3 70 120 c140 241 247 428 247 431 0 2 16 28 35 58
19 30 35 60 35 65 0 7 -69 12 -192 13 l-193 3 -3 93 -3 92 -377 0 -377 -1 -44
-77z"/>
<path d="M2012 218 c-16 -16 -15 -53 1 -66 7 -6 46 -12 87 -14 l75 -3 3 -67 3
-68 44 0 45 0 0 70 0 70 71 0 c80 0 109 11 109 42 0 43 -23 47 -230 48 -140 0
-199 -3 -208 -12z"/>
<path d="M3302 218 c-8 -8 -12 -48 -12 -115 l0 -103 45 0 45 0 0 70 0 70 148
0 c155 0 172 4 172 45 0 42 -15 45 -205 45 -127 0 -185 -4 -193 -12z"/>
<path d="M4550 209 c-15 -28 -10 -40 63 -130 l62 -78 96 0 97 -1 66 88 c67 89
75 109 54 130 -30 30 -55 13 -131 -85 -40 -54 -79 -98 -85 -98 -6 0 -34 32
-63 70 -74 100 -100 125 -126 125 -12 0 -27 -9 -33 -21z"/>
<path d="M5832 218 c-16 -16 -15 -53 1 -66 7 -6 46 -12 87 -14 l75 -3 3 -67 3
-68 44 0 45 0 0 70 0 70 78 0 c47 0 83 5 90 12 18 18 14 56 -7 68 -29 15 -404
13 -419 -2z"/>
<path d="M7280 211 c-5 -11 -10 -63 -10 -115 l0 -96 50 0 50 0 0 93 c0 68 -4
99 -16 115 -19 27 -60 29 -74 3z"/>
<path d="M8412 218 c-8 -8 -12 -48 -12 -115 l0 -103 45 0 45 0 0 96 c0 52 -5
104 -10 115 -12 21 -50 25 -68 7z"/>
</g>
</svg>
